<svg xmlns="http://www.w3.org/2000/svg" viewBox="0 0 112 40" role="img" aria-label="Apple Pay">
  <g fill="#000000">
    <path d="M19.54 10.49c1.08-1.35 1.81-3.22 1.61-5.09-1.55.07-3.43 1.04-4.54 2.35-1 1.16-1.88 3.12-1.55 4.96 1.73.13 3.49-.88 4.48-2.22z"/>
    <path d="M21.1 12.92c-2.57-.15-4.75 1.46-5.97 1.46-1.23 0-3.12-1.39-5.13-1.35-2.64.04-5.07 1.54-6.43 3.9-2.75 4.76-.7 11.81 1.97 15.68 1.3 1.9 2.85 4.02 4.88 3.94 1.96-.08 2.7-1.26 5.07-1.26s3.02 1.26 5.11 1.22c2.11-.04 3.45-1.93 4.74-3.84 1.49-2.17 2.1-4.27 2.14-4.38-.05-.02-4.12-1.58-4.16-6.27-.04-3.93 3.21-5.81 3.36-5.91-1.83-2.69-4.68-2.98-5.58-3.19z"/>
    <path d="M37.2 29.85c1.66 0 2.9-.4 3.78-1.17.83-.73 1.26-1.75 1.26-2.97 0-1.3-.46-2.3-1.35-2.96-.89-.66-2.2-1-3.87-1h-2.42v8.1h2.6zm-1.02-9.55h2.35c1.42 0 2.52.3 3.26.9.75.6 1.13 1.46 1.13 2.55 0 .9-.3 1.67-.9 2.28l-.05.05c.9.42 1.52 1.04 1.86 1.84.35.81.52 1.76.52 2.84 0 1.5-.4 2.8-1.2 3.86-.8 1.05-2.05 1.64-3.7 1.76l-.35.02h-5.48V20.3h2.56zM50.55 30.1c1.2 0 2.16-.36 2.87-1.07.71-.71 1.07-1.67 1.07-2.85 0-1.2-.36-2.16-1.08-2.86-.72-.7-1.68-1.05-2.86-1.05-1.17 0-2.13.35-2.85 1.05-.72.7-1.08 1.66-1.08 2.86 0 1.18.36 2.14 1.08 2.85.72.71 1.68 1.07 2.85 1.07zm0-10.35c1.95 0 3.5.64 4.63 1.9 1.13 1.26 1.7 2.95 1.7 5.05s-.57 3.8-1.7 5.07c-1.13 1.26-2.68 1.9-4.63 1.9-1.96 0-3.51-.64-4.64-1.9-1.13-1.27-1.7-2.97-1.7-5.07s.57-3.79 1.7-5.05c1.13-1.26 2.68-1.9 4.64-1.9zM62.35 32.55c1.18 0 2.2-.28 3.05-.84.85-.56 1.45-1.32 1.8-2.25l-1.95-.7c-.45 1.15-1.35 1.73-2.7 1.73-1.1 0-1.97-.4-2.6-1.2-.63-.8-.95-1.95-.95-3.45 0-1.48.32-2.62.95-3.41.64-.8 1.5-1.2 2.6-1.2 1.3 0 2.18.55 2.65 1.65l1.95-.75c-.4-.95-1.03-1.7-1.9-2.24-.87-.54-1.88-.81-3.03-.81-1.85 0-3.35.66-4.48 1.97-1.13 1.3-1.7 3.05-1.7 5.22s.57 3.92 1.7 5.22c1.13 1.3 2.65 1.96 4.61 1.96zM74.2 32.4c1.72 0 3.1-.55 4.12-1.64 1.02-1.1 1.53-2.57 1.53-4.42V20.3h-2.45v5.85c0 1.22-.28 2.18-.85 2.87-.57.7-1.35 1.04-2.35 1.04-1.05 0-1.87-.36-2.45-1.08-.58-.72-.87-1.72-.87-3V20.3h-2.45v12.1h2.3v-1.45c.5.58 1.1 1.02 1.8 1.3.7.29 1.48.43 2.32.43zM85.55 32.4c1.1 0 2.08-.24 2.95-.72.87-.48 1.52-1.15 1.95-2.02l-1.9-.85c-.55 1.1-1.45 1.65-2.7 1.65-1.15 0-2.05-.42-2.7-1.25-.65-.84-.98-2-.98-3.5s.33-2.65.98-3.48c.65-.84 1.55-1.25 2.7-1.25 1.25 0 2.15.55 2.7 1.65l1.9-.85c-.43-.87-1.08-1.54-1.95-2.02-.87-.48-1.85-.72-2.95-.72-1.9 0-3.42.65-4.55 1.95-1.13 1.3-1.7 3.04-1.7 5.22s.57 3.92 1.7 5.22c1.13 1.3 2.65 1.95 4.55 1.95zM97.85 32.4c1.72 0 3.1-.55 4.12-1.64 1.02-1.1 1.53-2.57 1.53-4.42V20.3h-2.45v5.85c0 1.22-.28 2.18-.85 2.87-.57.7-1.35 1.04-2.35 1.04-1.05 0-1.87-.36-2.45-1.08-.58-.72-.87-1.72-.87-3V20.3H92.1v12.1h2.3v-1.45c.5.58 1.1 1.02 1.8 1.3.7.29 1.48.43 2.32.43z"/>
  </g>
</svg>
